<?xml version="1.0" encoding="utf-8"?>
<!DOCTYPE svg PUBLIC "-//W3C//DTD SVG 1.1//EN" "http://www.w3.org/Graphics/SVG/1.1/DTD/svg11.dtd">
<svg version="1.1" id="bg" xmlns="http://www.w3.org/2000/svg" xmlns:xlink="http://www.w3.org/1999/xlink" x="0px" y="0px"
	  viewBox="0 500 3000 1000" xml:space="preserve">
<g id="bg-shadows">
	<g>
		<defs>
			<path id="SVGID_1_" d="M1993.04,1257.893c-0.521,11.333,0.521,87.375,1.563,97.271c1.041,9.896,10.937,49.479,60.416,54.168
				c24.396,2.312,39.416-13.751,48.396-30.605l26.021,6.646l3.707-9.896v-96.5c0,0-4.687-9.25-9.895-7.666
				c-5.208,1.563-36.791,3.521-36.791,3.521l0.896,21.416l-5.252-8.791l-85.937-39.583c0,0-0.092-0.046-0.245-0.046
				C1995.259,1247.826,1993.462,1248.692,1993.04,1257.893"/>
		</defs>
		<clipPath id="SVGID_2_">
			<use xlink:href="#SVGID_1_"  overflow="visible"/>
		</clipPath>
		
			<linearGradient id="SVGID_3_" gradientUnits="userSpaceOnUse" x1="0" y1="1878.9287" x2="1" y2="1878.9287" gradientTransform="matrix(140.839 -81.3134 -81.3134 -140.839 154778.9219 265994.375)">
			<stop  offset="0" style="stop-color:#2A486E"/>
			<stop  offset="0.3679" style="stop-color:#2A486E"/>
			<stop  offset="0.4366" style="stop-color:#274569"/>
			<stop  offset="0.757" style="stop-color:#1C3859"/>
			<stop  offset="1" style="stop-color:#183453"/>
		</linearGradient>
		<polygon clip-path="url(#SVGID_2_)" fill="url(#SVGID_3_)" points="1921.585,1288.78 2097.987,1186.935 2204.078,1370.688 
			2027.676,1472.535 		"/>
	</g>
	<g opacity="0.56">
		<g>
			<defs>
				<rect id="SVGID_4_" x="1033.32" y="605.61" width="959.581" height="638.172"/>
			</defs>
			<clipPath id="SVGID_5_">
				<use xlink:href="#SVGID_4_"  overflow="visible"/>
			</clipPath>
			<g clip-path="url(#SVGID_5_)">
				<defs>
					<path id="SVGID_6_" d="M1158.667,854.817l-12.083-21.298h690.206l111.434-227.906l25.399,77.323l-134.749,251.395h-43.75
						v51.041h190.624l7.153,11.111v148.958H1881.93v57.899h-142.882v-34.662h-438.367v-148.848h-48.829l-45.167-0.037
						c0,0-3.921-13.936-43.504-16.713c-39.583-2.778-59.889,29.303-59.889,29.303l50.406,35.28v103.125c0,0-0.934,3.125-5.795,4.166
						v11.458c0,0-6.361,6.945-13.944,8.334v19.097h-3.417c0,0,1.736,13.542-1.042,16.319c-2.777,2.778-3.583,11.111-19.5,12.848
						c-15.916,1.736-47.166,0-47.166,0v-179.86c0,0-4.834-4.457-1.861-8.595l-3-97.309"/>
				</defs>
				<clipPath id="SVGID_7_">
					<use xlink:href="#SVGID_6_"  overflow="visible"/>
				</clipPath>
				
					<linearGradient id="SVGID_8_" gradientUnits="userSpaceOnUse" x1="-4.882813e-004" y1="1878.999" x2="0.9995" y2="1878.999" gradientTransform="matrix(959.5814 0 0 -959.5814 1033.5 1803978.375)">
					<stop  offset="0" style="stop-color:#1E3755"/>
					<stop  offset="0.0543" style="stop-color:#2E4A6C"/>
					<stop  offset="0.1554" style="stop-color:#466990"/>
					<stop  offset="0.2501" style="stop-color:#5880AA"/>
					<stop  offset="0.3349" style="stop-color:#638DB9"/>
					<stop  offset="0.4016" style="stop-color:#6792BF"/>
					<stop  offset="0.4906" style="stop-color:#628CB8"/>
					<stop  offset="0.6217" style="stop-color:#547AA4"/>
					<stop  offset="0.7789" style="stop-color:#3D5E84"/>
					<stop  offset="0.9548" style="stop-color:#1D3657"/>
					<stop  offset="1" style="stop-color:#142B4A"/>
				</linearGradient>
				<rect x="1033.32" y="605.613" clip-path="url(#SVGID_7_)" fill="url(#SVGID_8_)" width="959.581" height="639.134"/>
			</g>
		</g>
	</g>
	<path fill="#2A486E" d="M1710.374,1178.602c0,0-1.937,52.063,0,116.396c1.937,64.333,4.368,141.416,5.496,145.583
		c1.129,4.166,4.421,9.375,4.421,9.375l0.437,7.291h9.64l1.735-9.375c0,0,4.01-9.896,4.609-11.458
		c0.599-1.563-4.609-102.605-4.609-102.605L1710.374,1178.602z"/>
	<path fill="#3F6490" d="M1270.562,1011.531c0,0,1.646,5.091,1.646,10.3v93.055c0,0-14.236,52.083-16.666,55.903
		c-2.431,3.819-8.681,11.11-26.736,9.027c-18.056-2.083-36.806-28.125-36.806-28.125v-92.998c0,0,0.695-7.308,6.598-11.321
		C1204.5,1043.358,1270.562,1011.531,1270.562,1011.531"/>
	<polygon fill="#2A486E" points="1280.542,1170.789 1280.542,1273.913 1312.834,1524.954 1689.916,1477.56 1689.916,1374.435 
		1325.334,1408.81 1301.375,1273.913 1291.48,1195.788 	"/>
	<path fill="#2D4A72" d="M1957.968,1215.089c0,0,0.592,119.937-3.521,135.907c-4.114,15.973-35.712,49.654-56.197,51.042
		c-20.486,1.389-53.473-28.472-53.819-40.972c-0.348-12.499-1.736-128.498,4.514-149.839c0,0,10.235-12.782,16.681-15.785
		l2.938-47.917l6.423-2.083L1957.968,1215.089z"/>
</g>
<g id="bg-desktop">
	<g>
		<path fill="#FFFFFF" d="M1579.184,902.734h-164.866c-3.662,0-6.418-3.324-5.741-6.926l8.751-46.888l2.793-14.942l106.843-8.328
			l45.595-3.554l0.593,3.554l3.904,23.27l7.894,46.997C1585.554,899.482,1582.798,902.734,1579.184,902.734"/>
		<polygon fill="#CCD6D7" points="1577.056,848.92 1417.328,848.92 1420.12,833.979 1526.964,825.65 1573.151,825.65 		"/>
		<rect x="1126.855" y="1089.393" fill="#405373" width="7.104" height="19.021"/>
	</g>
	<g>
		<defs>
			<rect id="SVGID_9_" width="3000" height="1879"/>
		</defs>
		<clipPath id="SVGID_10_">
			<use xlink:href="#SVGID_9_"  overflow="visible"/>
		</clipPath>
		<path clip-path="url(#SVGID_10_)" fill="#D9EBFC" d="M2102.936,1252.56c0,29.483-23.901,53.385-53.385,53.385
			c-29.484,0-53.387-23.901-53.387-53.385c0-29.484,23.902-53.386,53.387-53.386
			C2079.034,1199.174,2102.936,1223.075,2102.936,1252.56"/>
		<path clip-path="url(#SVGID_10_)" fill="#A15F53" d="M2092.79,1252.56c0,23.396-19.062,42.438-42.458,42.438
			c-8.25,0-15.959-2.355-22.48-6.459c-11.979-7.5-19.979-20.833-19.979-35.979c0-23.396,19.063-42.438,42.459-42.438
			c13.229,0,25.083,6.104,32.875,15.627C2089.186,1233.06,2092.79,1242.414,2092.79,1252.56"/>
		<path clip-path="url(#SVGID_10_)" fill="#D9EBFC" d="M2121.292,1278.815c-11.116-2.612-30.376-6.577-30.606-6.625l3.146-15.304
			c0.954,0.196,19.833,4.082,31.185,6.754c3.162,0.745,5.065,3.965,4.211,7.1l-1.088,3.993
			C2127.325,1277.718,2124.305,1279.523,2121.292,1278.815"/>
		<path clip-path="url(#SVGID_10_)" fill="#D0685F" d="M2092.79,1252.56c0,23.396-19.062,42.438-42.458,42.438
			c-8.25,0-15.959-2.355-22.48-6.459c-6.625-7.188-10.604-16.479-10.604-26.604c0-22.729,20-41.146,44.667-41.146
			c7.708,0,14.958,1.792,21.292,4.959C2089.186,1233.06,2092.79,1242.414,2092.79,1252.56"/>
		<polygon clip-path="url(#SVGID_10_)" fill="#243958" points="1693.041,1379.121 1315.958,1427.038 1284.916,1193.122 
			1284.708,1191.622 1280.542,1170.789 1659.708,1120.789 1663.707,1142.747 1663.874,1143.705 		"/>
		<polygon clip-path="url(#SVGID_10_)" fill="#516681" points="1663.707,1142.747 1284.916,1193.122 1284.708,1191.622 
			1280.542,1170.789 1659.708,1120.789 		"/>
		<polygon clip-path="url(#SVGID_10_)" fill="#FFFFFF" points="1382.625,1204.122 1403.458,1368.705 1632.624,1341.621 
			1611.791,1172.872 		"/>
		<polygon clip-path="url(#SVGID_10_)" fill="#FFFFFF" points="1305.542,1214.538 1338.875,1210.372 1345,1256 1312,1262 		"/>
		<polygon clip-path="url(#SVGID_10_)" fill="#FFFFFF" points="1320.125,1329.121 1353.458,1324.955 1359.708,1372.871 1326,1377 		
			"/>
		<path clip-path="url(#SVGID_10_)" fill="#DD6D59" d="M1645.124,1255.163c0,2.877-2.332,5.209-5.208,5.209
			c-2.877,0-5.208-2.332-5.208-5.209c0-2.876,2.331-5.208,5.208-5.208C1642.792,1249.955,1645.124,1252.287,1645.124,1255.163"/>
		<path clip-path="url(#SVGID_10_)" fill="#DD6D59" d="M1663.874,1250.997c0,2.876-2.332,5.208-5.208,5.208
			c-2.877,0-5.208-2.332-5.208-5.208c0-2.877,2.331-5.209,5.208-5.209C1661.542,1245.788,1663.874,1248.12,1663.874,1250.997"/>
		<path clip-path="url(#SVGID_10_)" fill="#DD6D59" d="M1370.819,1265.58c0,1.726-1.399,3.125-3.125,3.125s-3.125-1.399-3.125-3.125
			s1.399-3.125,3.125-3.125S1370.819,1263.854,1370.819,1265.58"/>
		<path clip-path="url(#SVGID_10_)" fill="#F3BAB3" d="M1375.463,1292.229c0,14.85-12.038,26.888-26.888,26.888
			c-14.85,0-26.888-12.038-26.888-26.888s12.038-26.888,26.888-26.888C1363.425,1265.342,1375.463,1277.38,1375.463,1292.229"/>
		<path clip-path="url(#SVGID_10_)" fill="#E4F5FC" d="M1348.576,1314.951c-12.529,0-22.722-10.192-22.722-22.722
			c0-12.528,10.193-22.721,22.722-22.721c12.528,0,22.721,10.192,22.721,22.721
			C1371.297,1304.759,1361.104,1314.951,1348.576,1314.951"/>
		<path clip-path="url(#SVGID_10_)" fill="#F3BAB3" d="M1348.576,1304.534c-6.785,0-12.305-5.52-12.305-12.305
			c0-6.784,5.52-12.304,12.305-12.304c6.785,0,12.304,5.52,12.304,12.304C1360.88,1299.015,1355.36,1304.534,1348.576,1304.534"/>
		<path clip-path="url(#SVGID_10_)" fill="#DD6D59" d="M1348.576,1301.409c-5.062,0-9.18-4.117-9.18-9.18
			c0-5.062,4.118-9.18,9.18-9.18s9.179,4.118,9.179,9.18C1357.755,1297.292,1353.638,1301.409,1348.576,1301.409"/>
		<path clip-path="url(#SVGID_10_)" fill="#D9EBFC" d="M2037.963,1268.978c0.579,0.116,1.398,0.217,2.126,0.271
			c0.753,0.053,1.513,0.07,2.274,0.063c1.525-0.012,3.056-0.178,4.566-0.422c3.021-0.514,5.995-1.365,8.805-2.635
			c1.422-0.64,2.754-1.322,3.971-2.122c0.585-0.426,1.215-0.808,1.727-1.298l0.809-0.694l0.717-0.767
			c1.906-2.053,2.984-4.648,3.363-7.475c0.191-1.426,0.188-2.878,0.129-4.486c-0.019-0.357-0.017-0.921-0.041-1.23
			c-0.021-0.08-0.031-0.16-0.033-0.243c-0.016-0.101-0.071-0.26-0.102-0.388c-0.136-0.543-0.41-1.208-0.708-1.844
			c-1.25-2.588-3.105-5.092-5.204-7.13c-1.062-1.016-2.209-1.886-3.394-2.596c-1.192-0.681-2.44-1.114-3.62-1.261
			c-1.126-0.175-2.389,0.111-3.624,0.564c-1.248,0.442-2.465,1.205-3.608,2.061c-2.291,1.735-4.273,4.06-5.654,6.548
			c-0.663,1.239-1.15,2.562-1.271,3.662c-0.126,1.134,0.08,2.477,0.524,3.666c0.895,2.426,2.824,4.573,5.161,5.763
			c1.166,0.596,2.435,0.957,3.692,1.037c1.221,0.08,2.441-0.148,3.58-0.651c1.137-0.501,2.188-1.277,3.035-2.225
			c0.83-0.955,1.442-2.089,1.702-3.159c0.088-0.543,0.144-0.982,0.068-1.517c-0.087-0.511-0.22-1.021-0.477-1.501
			c-0.497-0.961-1.346-1.815-2.376-2.383c-1.027-0.563-2.215-0.862-3.367-0.785c-0.354-0.005-0.422,0.077-0.582,0.076
			c-0.071,0.018-0.131,0.075-0.203,0.097c-0.075,0.013-0.145,0.06-0.209,0.124c-0.293,0.164-0.559,0.538-0.776,0.945
			c-0.239,0.412-0.32,0.928-0.388,1.405c-0.01,0.481,0.046,0.942,0.195,1.308c0.187,0.331,0.332,0.652,0.668,0.828
			c0.109,0.145,0.359,0.166,0.523,0.284c0.211,0.073,0.471,0.103,0.699,0.182l0.619,0.216c1.233,0.427,1.886,1.772,1.459,3.006
			c-0.397,1.143-1.586,1.787-2.738,1.533c-0.561-0.123-1.116-0.218-1.672-0.41c-0.557-0.258-1.131-0.434-1.637-0.844
			c-1.082-0.672-1.869-1.785-2.385-2.898c-0.939-2.313-0.732-4.7,0.262-6.772c0.521-1.028,1.229-2.038,2.303-2.782
			c0.25-0.2,0.521-0.375,0.83-0.511c0.301-0.141,0.597-0.298,0.912-0.398c0.638-0.173,1.356-0.328,1.824-0.324
			c2.106-0.15,4.217,0.353,6.053,1.335c1.834,0.99,3.425,2.5,4.453,4.429c0.52,0.96,0.85,2.034,1.026,3.13
			c0.175,1.085,0.09,2.29-0.131,3.346c-1.067,4.184-3.978,7.244-7.65,8.907c-1.842,0.816-3.918,1.205-5.956,1.065
			c-2-0.132-3.929-0.699-5.666-1.589c-3.468-1.792-6.207-4.815-7.589-8.509c-0.675-1.864-1.021-3.825-0.81-5.938
			c0.252-2.143,0.996-3.908,1.855-5.543c1.793-3.212,4.146-5.943,7.049-8.16c1.462-1.091,3.041-2.088,4.869-2.753
			c1.799-0.661,3.826-1.137,5.956-0.855c2.055,0.249,3.923,0.964,5.564,1.899c1.617,0.963,3.069,2.089,4.366,3.331
			c2.567,2.517,4.662,5.327,6.259,8.612c0.389,0.844,0.756,1.688,1.024,2.725c0.062,0.27,0.134,0.5,0.182,0.801
			c0.04,0.324,0.07,0.649,0.094,0.975l0.023,1.215c0.037,1.65,0.027,3.475-0.242,5.282c-0.507,3.619-2.104,7.313-4.7,10.013
			c-2.531,2.754-5.827,4.559-8.971,5.83c-3.185,1.31-6.55,2.232-9.988,2.634c-1.719,0.196-3.45,0.301-5.19,0.235
			c-0.868-0.031-1.737-0.092-2.609-0.193c-0.895-0.116-1.695-0.232-2.705-0.489c-1.001-0.255-1.606-1.272-1.352-2.273
			c0.245-0.968,1.205-1.565,2.174-1.374L2037.963,1268.978z"/>
		<g opacity="0.38" clip-path="url(#SVGID_10_)">
			<g>
				<defs>
					<rect id="SVGID_11_" x="1710.811" y="1132.247" width="21.289" height="33.479"/>
				</defs>
				<clipPath id="SVGID_12_">
					<use xlink:href="#SVGID_11_"  overflow="visible"/>
				</clipPath>
				<path clip-path="url(#SVGID_12_)" fill="#2D4A72" d="M1732.104,1165.602c-3.313-0.229-6.771-0.292-10-0.25
					c-4.75,0.021-8.979,0.25-11.292,0.375c1.813-7.959,9.042-29.604,10.188-33.021c0.104-0.292,0.165-0.458,0.165-0.458v1.5
					C1721.165,1133.748,1729.54,1149.748,1732.104,1165.602"/>
			</g>
		</g>
		<path clip-path="url(#SVGID_10_)" fill="#516681" d="M1736.437,1341.976l-1.729,5.896v11.979c0,0-3.563,3.292-5.771,3.292h-0.208
			c-2.313-0.167-7.042-2.938-6.709-4.292l-0.166-10.375l-2.938,0.083l-1.229-5.541c0,0-6.479-144.688-7.25-171
			c1.979-0.125,6.604-0.396,11.875-0.416c3.417-0.021,7.104,0.063,10.458,0.354c0,0.125,0.021,0.271,0.021,0.396
			C1733.498,1190.06,1737.832,1338.497,1736.437,1341.976"/>
		<path clip-path="url(#SVGID_10_)" fill="#2D4A72" d="M1736.437,1341.976l-1.729,5.896v11.979c0,0-3.563,3.292-5.771,3.292h-0.208
			l-6.417-191.541l-0.208-6.25l-1.105-32.646c0.105-0.291,0.167-0.459,0.167-0.459v1.5c0,0,8.375,16,10.938,31.855
			c0.166,1.083,0.312,2.145,0.416,3.208c0.021,0.062,0.021,0.104,0.021,0.167c0.104,0.999,0.188,1.999,0.229,2.979
			c0,0.125,0.021,0.271,0.021,0.396C1733.498,1190.06,1737.832,1338.497,1736.437,1341.976"/>
		<path clip-path="url(#SVGID_10_)" fill="#DD6D59" d="M1721.886,1350.214c0,0-5.899-0.777-5.147-6.249c0,0,7.813-4.514,22.31-1.822
			v5.902c0,0-15.278-0.434-17.188,0.436"/>
		<path clip-path="url(#SVGID_10_)" fill="#DD6D59" d="M1732.77,1171.955c-3.354-0.292-7.041-0.375-10.458-0.354
			c-5.271,0.021-9.896,0.292-11.875,0.416c-0.021-1.334-0.063-2.354-0.063-3.041v-0.084c0-0.438,0.021-0.729,0.021-0.875
			c0.042-0.499,0.188-1.291,0.417-2.291c2.312-0.125,6.542-0.354,11.292-0.375c3.229-0.043,6.688,0.021,10,0.25
			c0.166,1.082,0.313,2.146,0.416,3.207c0.021,0.063,0.021,0.104,0.021,0.168C1732.645,1169.977,1732.729,1170.977,1732.77,1171.955
			"/>
		<path clip-path="url(#SVGID_10_)" fill="#FFFFFF" d="M1715.87,1189.625l1.303,44.357c0,0,8.927,0.693,13.194,0v-43.922
			c0,0-2.17-2.952-6.814-3.387C1718.909,1186.24,1715.87,1189.625,1715.87,1189.625"/>
		<polygon clip-path="url(#SVGID_10_)" fill="#2D4A72" points="1726.624,1191.705 1726.624,1210.497 1720.728,1210.497 
			1720.291,1191.705 		"/>
		<polygon clip-path="url(#SVGID_10_)" fill="#DD6D59" points="1726.624,1210.497 1726.624,1229.288 1721.166,1229.288 
			1720.728,1210.497 		"/>
	</g>
	<g>
		<defs>
			<path id="SVGID_13_" d="M1097.209,580.332c-4.958,0-9.479,0.02-13.542,0.041c-3.896,0-7.374,0.022-10.416,0.042
				c-8.208,0.021-13.104,0.062-14.229,0.105c-1.397,0.041-2.667,0.165-3.855,0.353c-0.583,0.084-1.146,0.209-1.708,0.355
				c-7.541,1.937-12.729,9.104-12.229,17.041l1.562,24.334l0.23,3.541c0.02,0.146,0.041,0.271,0.062,0.396
				c3.667,14.646,62.604,128.583,90.146,181.416c6.812,13.083,11.708,22.396,13.354,25.563c0.396,0.73,1.145,1.167,1.958,1.167
				h696.623c0.834,0,1.584-0.48,1.979-1.21l12.959-25.52l0.021-0.021l91.333-179.561l0.604-1.209c0,0,0.709-18.875,0-30.687
				c-0.584-9.875-6.498-14.396-8.416-15.605c-0.209-0.125-0.396-0.208-0.604-0.271c-0.187-0.062-0.375-0.082-0.583-0.082
				c-3,0-17.521-0.022-40.792-0.043h-6.541c-6.397,0-13.354,0-20.834-0.019c-121.128-0.086-378.048-0.251-571.351-0.251
				C1214.874,580.207,1140.003,580.241,1097.209,580.332"/>
		</defs>
		<clipPath id="SVGID_14_">
			<use xlink:href="#SVGID_13_"  overflow="visible"/>
		</clipPath>
		
			<linearGradient id="SVGID_15_" gradientUnits="userSpaceOnUse" x1="-9.765625e-004" y1="1879" x2="1" y2="1879" gradientTransform="matrix(911.1792 0 0 -911.1792 1041 1712813.25)">
			<stop  offset="0" style="stop-color:#E7F8FF"/>
			<stop  offset="0.4974" style="stop-color:#FFFFFF"/>
			<stop  offset="1" style="stop-color:#E7F8FF"/>
		</linearGradient>
		<rect x="1040.73" y="580.207" clip-path="url(#SVGID_14_)" fill="url(#SVGID_15_)" width="912.04" height="254.479"/>
	</g>
	<g>
		<defs>
			<rect id="SVGID_16_" width="3000" height="1879"/>
		</defs>
		<clipPath id="SVGID_17_">
			<use xlink:href="#SVGID_16_"  overflow="visible"/>
		</clipPath>
		<path clip-path="url(#SVGID_17_)" fill="#FFFFFF" d="M1097.209,580.332v49.583h-13.542v-49.542
			C1087.73,580.353,1092.251,580.332,1097.209,580.332"/>
		<path clip-path="url(#SVGID_17_)" fill="#FFFFFF" d="M1073.25,580.415v49.5h-19.792v-48.688c0.563-0.145,1.125-0.27,1.709-0.354
			c1.187-0.187,2.458-0.312,3.854-0.354C1060.146,580.477,1065.042,580.436,1073.25,580.415"/>
		<path clip-path="url(#SVGID_17_)" fill="#B7C6C9" d="M1895.124,580.478v53.791h-20.834v-53.812
			C1881.77,580.478,1888.728,580.478,1895.124,580.478"/>
		<path clip-path="url(#SVGID_17_)" fill="#B1C3C5" d="M1943.04,580.603v41.625l-41.666,22.229v-63.979h0.291
			c23.271,0.021,37.792,0.042,40.792,0.042C1942.665,580.52,1942.854,580.541,1943.04,580.603"/>
		<path clip-path="url(#SVGID_17_)" fill="#2D3E50" d="M1951.457,628.373l-91.333,179.562l-0.021,0.021h-726.875
			c-27.666-53.062-86.999-167.791-90.187-181.604l-0.25-3.75c1.375-4.625,4.688-9.458,12.583-9.979h882.979
			C1938.354,612.623,1949.561,613.915,1951.457,628.373"/>
	</g>
	<g>
		<defs>
			<path id="SVGID_18_" d="M1065.605,628.603c-1.271,0-2.105,1.333-1.542,2.48l56.063,113.478l29.166,59.041h693.748l85.229-172.519
				c0.563-1.147-0.271-2.48-1.543-2.48H1065.605z"/>
		</defs>
		<clipPath id="SVGID_19_">
			<use xlink:href="#SVGID_18_"  overflow="visible"/>
		</clipPath>
		
			<linearGradient id="SVGID_20_" gradientUnits="userSpaceOnUse" x1="-9.765625e-004" y1="1879" x2="1" y2="1879" gradientTransform="matrix(864.5638 0 0 -864.5638 1064 1625231.375)">
			<stop  offset="0" style="stop-color:#54647D"/>
			<stop  offset="0.1823" style="stop-color:#6A788C"/>
			<stop  offset="0.3728" style="stop-color:#798697"/>
			<stop  offset="0.523" style="stop-color:#7F8B9B"/>
			<stop  offset="0.6631" style="stop-color:#788596"/>
			<stop  offset="0.868" style="stop-color:#647388"/>
			<stop  offset="1" style="stop-color:#54647D"/>
		</linearGradient>
		<rect x="1063.5" y="628.603" clip-path="url(#SVGID_19_)" fill="url(#SVGID_20_)" width="865.332" height="174.999"/>
	</g>
	<polygon opacity="0.1" fill="#FFFFFF" points="1375.813,803.602 1549.229,628.603 1214.458,628.603 1172.229,803.602 	"/>
	<polygon opacity="0.1" fill="#FFFFFF" points="1427.5,803.602 1652.687,628.603 1565.374,628.603 1394.312,803.602 	"/>
	<polygon opacity="0.1" fill="#FFFFFF" points="1150.729,803.602 1182.771,628.603 1120.125,628.603 1120.125,744.561 	"/>
	<path fill="#FF8764" d="M1504.152,822.092c0,3.787-3.653,6.857-8.16,6.857c-4.506,0-8.159-3.07-8.159-6.857
		c0-3.788,3.653-6.857,8.159-6.857C1500.499,815.235,1504.152,818.304,1504.152,822.092"/>
	<path fill="#5B4339" d="M1495.993,830.038c-5.099,0-9.248-3.566-9.248-7.947s4.149-7.946,9.248-7.946s9.248,3.565,9.248,7.946
		S1501.092,830.038,1495.993,830.038 M1495.993,816.322c-3.899,0-7.072,2.588-7.072,5.769s3.173,5.77,7.072,5.77
		s7.072-2.589,7.072-5.77S1499.892,816.322,1495.993,816.322"/>
	<path fill="#FBFAF6" d="M1251.718,989.885l-8.325-0.357c0.522-12.269-0.321-46.182-10.359-55.636l5.715-6.068
		C1253.354,941.582,1251.929,984.981,1251.718,989.885"/>
	<path fill="#FBFAF6" d="M1078.933,1019.794c-0.694-0.937-16.94-23.301-11.889-57.94l8.246,1.204
		c-4.56,31.269,10.185,51.566,10.334,51.769L1078.933,1019.794z"/>
	<path fill="#4D5C79" d="M1245.688,927.247l-8.708,16.5l-0.105,0.062c-0.291-0.5-30.104-49.395-79.416-46.291
		c-51.479,3.23-79.5,51.5-80.354,71.792l-15.396-9.521v-0.021c6.875-29.583,40.313-75.479,94.708-78.896
		C1202.979,877.935,1233.792,911.351,1245.688,927.247"/>
	<path fill="#EF6F56" d="M1111.833,1099.657l23.169-15.836c2.864-1.957,3.599-5.865,1.642-8.729l-38.084-55.72
		c-1.957-2.864-5.866-3.599-8.729-1.642l-23.169,15.836c-2.864,1.957-3.599,5.865-1.642,8.729l38.084,55.721
		C1105.062,1100.879,1108.969,1101.614,1111.833,1099.657"/>
	<path fill="#405373" d="M1130.494,1086.902l23.169-15.836c2.864-1.957,3.599-5.865,1.642-8.729l-38.084-55.721
		c-1.957-2.863-5.866-3.599-8.729-1.642l-23.169,15.836c-2.864,1.957-3.599,5.865-1.642,8.729l38.084,55.72
		C1123.723,1088.125,1127.631,1088.859,1130.494,1086.902"/>
	<path fill="#DFF2F8" d="M1140.084,1088.602l-11.813,7.979c-5.895,4-13.895,2.562-17.895-3.229l-15.813-22.917l-0.958-1.395
		l-5.479-7.938l-0.792-1.146l-1.563-2.271l-7.104-10.312l-5.229-7.563l-2.104-3.042l-0.313-0.458l-0.062-0.083
		c-3.583-5.209-2.667-12.146,1.833-16.396c0.5-0.479,1.063-0.917,1.646-1.313l11.792-8c5.416-3.646,12.583-2.75,16.812,1.854
		c0.084,0.083,0.167,0.187,0.25,0.291c0.292,0.334,0.584,0.709,0.854,1.084l11.271,16.354l0.459,0.646l0.583,0.854l2.458,3.563
		l0.667,0.979l4.792,6.938l0.833,1.208l8.75,12.709l3.833,5.583h0.021v0.021l5.729,8.291c0.229,0.334,0.438,0.647,0.604,1
		C1147.334,1077.539,1145.646,1084.831,1140.084,1088.602"/>
	<g opacity="0.47">
		<g>
			<defs>
				<rect id="SVGID_21_" x="1103.29" y="1074.935" width="13.42" height="19.166"/>
			</defs>
			<clipPath id="SVGID_22_">
				<use xlink:href="#SVGID_21_"  overflow="visible"/>
			</clipPath>
			<path clip-path="url(#SVGID_22_)" fill="#FEFEFE" d="M1116.709,1093.893l-0.25,0.209l-0.583-0.855l-11.73-17
				c-0.27-0.375-0.562-0.75-0.854-1.082l0.313-0.229c0.396,0.417,0.75,0.917,1.104,1.417L1116.709,1093.893z"/>
		</g>
	</g>
	<g opacity="0.47">
		<g>
			<defs>
				<rect id="SVGID_23_" x="1087.9" y="1061.101" width="6.66" height="9.542"/>
			</defs>
			<clipPath id="SVGID_24_">
				<use xlink:href="#SVGID_23_"  overflow="visible"/>
			</clipPath>
			<polygon clip-path="url(#SVGID_24_)" fill="#FEFEFE" points="1093.605,1069.039 1094.563,1070.436 1094.334,1070.644 
				1087.897,1061.289 1088.126,1061.103 			"/>
		</g>
	</g>
	<g opacity="0.47">
		<g>
			<defs>
				<rect id="SVGID_25_" x="1119.58" y="1035.956" width="5.84" height="8.333"/>
			</defs>
			<clipPath id="SVGID_26_">
				<use xlink:href="#SVGID_25_"  overflow="visible"/>
			</clipPath>
			<polygon clip-path="url(#SVGID_26_)" fill="#FEFEFE" points="1125.417,1044.122 1125.209,1044.289 1124.375,1043.081 
				1119.584,1036.144 1119.834,1035.955 			"/>
		</g>
	</g>
	<path fill="#FEFEFE" d="M1133.959,1056.997l-60.521-17.187l-2.104-3.042l-0.313-0.458l-0.062-0.084
		c-3.583-5.208-2.667-12.146,1.833-16.396l42.625,10.271l0.459,0.646l0.583,0.854l2.458,3.563l0.667,0.979l4.792,6.938l0.833,1.208
		L1133.959,1056.997z"/>
	<path fill="#FEFEFE" d="M1144.146,1071.893l-58.375-14.208l-7.104-10.313l59.125,15.209h0.021v0.021l5.729,8.291
		C1143.771,1071.227,1143.979,1071.539,1144.146,1071.893"/>
	<path fill="#EF6F56" d="M1247.368,1074.668l-27.131-7.176c-3.353-0.887-5.353-4.324-4.466-7.678l17.256-65.248
		c0.886-3.354,4.324-5.353,7.677-4.465l27.131,7.174c3.354,0.887,5.353,4.324,4.466,7.678l-17.256,65.248
		C1254.159,1073.555,1250.721,1075.555,1247.368,1074.668"/>
	<path fill="#405373" d="M1224.045,1069.41l-27.131-7.175c-3.353-0.887-5.353-4.324-4.466-7.678l17.256-65.248
		c0.886-3.354,4.324-5.354,7.677-4.466l27.131,7.175c3.354,0.887,5.353,4.325,4.467,7.678l-17.256,65.248
		C1230.836,1068.298,1227.399,1070.297,1224.045,1069.41"/>
	<path fill="#DFF2F8" d="M1264.667,1001.81l-0.021,0.104l-6.291,23.707l-1.271,4.875l-2.917,10.98l-7.771,29.375
		c-1.854,7-9,11.166-16,9.313l-13.979-3.688c-6.979-1.854-11.146-9.021-9.292-16l8.875-33.605l2.521-9.562l1.417-5.333l5.437-20.563
		c0.167-0.583,0.354-1.168,0.584-1.708c2.479-5.938,9.021-9.271,15.416-7.583l13.979,3.687
		C1262.334,987.664,1266.5,994.831,1264.667,1001.81"/>
	<path fill="#FEFEFE" d="M1264.646,1001.914l-6.292,23.708l-38.416-13.645l5.437-20.563c0.167-0.583,0.354-1.167,0.583-1.708
		L1264.646,1001.914z"/>
	<polygon fill="#FEFEFE" points="1257.083,1030.497 1254.167,1041.477 1216,1026.872 1218.521,1017.309 	"/>
	<path fill="#384965" d="M1799.988,1066.938h-493.332c-0.69,0-1.25-0.56-1.25-1.25V934.333c0-0.69,0.56-1.25,1.25-1.25h493.332
		c0.689,0,1.25,0.56,1.25,1.25v131.354C1801.238,1066.378,1800.678,1066.938,1799.988,1066.938"/>
	<rect x="1310.344" y="977.045" fill="#FFFEFD" width="32.604" height="18.688"/>
	<rect x="1345.468" y="977.045" fill="#FFFEFD" width="20.667" height="18.688"/>
	<rect x="1310.344" y="939.337" fill="#FFFEFD" width="20.625" height="13.5"/>
	<rect x="1310.344" y="955.334" fill="#FFFEFD" width="20.625" height="19.208"/>
	<rect x="1333.49" y="939.337" fill="#FFFEFD" width="19.625" height="13.5"/>
	<rect x="1333.49" y="955.334" fill="#FFFEFD" width="19.625" height="19.208"/>
	<rect x="1355.615" y="955.334" fill="#FFFEFD" width="18.854" height="19.208"/>
	<rect x="1310.343" y="998.233" fill="#FFFEFD" width="40.167" height="17.812"/>
	<rect x="1353.011" y="998.233" fill="#FFFEFD" width="19.104" height="17.812"/>
	<rect x="1368.636" y="977.045" fill="#FFFEFD" width="18.583" height="18.688"/>
	<rect x="1355.615" y="939.337" fill="#FFFEFD" width="18.854" height="13.5"/>
	<rect x="1399.886" y="939.337" fill="#FFFEFD" width="18.333" height="13.5"/>
	<rect x="1420.718" y="939.337" fill="#FFFEFD" width="20.417" height="13.5"/>
	<rect x="1462.385" y="998.232" fill="#FFFEFD" width="20.417" height="17.812"/>
	<rect x="1485.302" y="998.232" fill="#FFFEFD" width="18.604" height="17.812"/>
	<rect x="1472.552" y="1018.545" fill="#FFFEFD" width="18.063" height="19.021"/>
	<rect x="1450.406" y="1018.545" fill="#FFFEFD" width="19.625" height="19.021"/>
	<rect x="1476.969" y="977.045" fill="#FFFEFD" width="20.688" height="18.688"/>
	<rect x="1441.552" y="998.232" fill="#FFFEFD" width="18.333" height="17.812"/>
	<rect x="1456.135" y="977.045" fill="#FFFEFD" width="18.333" height="18.688"/>
	<rect x="1516.802" y="1018.545" fill="#FFFEFD" width="18.354" height="19.021"/>
	<rect x="1428.26" y="1018.544" fill="#FFFEFD" width="19.646" height="19.021"/>
	<rect x="1531.135" y="939.337" fill="#FFFEFD" width="18.334" height="13.5"/>
	<rect x="1507.948" y="939.337" fill="#FFFEFD" width="20.687" height="13.5"/>
	<rect x="1537.635" y="1018.545" fill="#FFFEFD" width="19.396" height="19.021"/>
	<rect x="1506.385" y="998.233" fill="#FFFEFD" width="19.917" height="17.812"/>
	<rect x="1521.489" y="977.045" fill="#FFFEFD" width="19.917" height="18.688"/>
	<rect x="1528.78" y="998.232" fill="#FFFEFD" width="18.876" height="17.812"/>
	<rect x="1500.135" y="977.045" fill="#FFFEFD" width="18.875" height="18.688"/>
	<rect x="1574.614" y="939.337" fill="#FFFEFD" width="18.875" height="13.5"/>
	<rect x="1595.968" y="939.337" fill="#FFFEFD" width="20.167" height="13.5"/>
	<rect x="1709.823" y="1018.535" fill="#FFFEFD" width="18.812" height="19.021"/>
	<rect x="1564.99" y="977.045" fill="#FFFEFD" width="20.687" height="18.688"/>
	<rect x="1573.052" y="998.232" fill="#FFFEFD" width="18.083" height="17.812"/>
	<rect x="1709.823" y="998.223" fill="#FFFEFD" width="18.812" height="17.813"/>
	<rect x="1685.822" y="939.326" fill="#FFFEFD" width="18.917" height="13.5"/>
	<rect x="1709.823" y="939.326" fill="#FFFEFD" width="18.812" height="13.5"/>
	<rect x="1685.822" y="977.036" fill="#FFFEFD" width="18.917" height="18.687"/>
	<rect x="1709.823" y="977.036" fill="#FFFEFD" width="18.812" height="18.687"/>
	<rect x="1685.822" y="955.326" fill="#FFFEFD" width="18.917" height="19.209"/>
	<rect x="1709.823" y="955.326" fill="#FFFEFD" width="18.812" height="19.209"/>
	<rect x="1551.968" y="939.337" fill="#FFFEFD" width="20.167" height="13.5"/>
	<rect x="1550.135" y="998.232" fill="#FFFEFD" width="20.438" height="17.812"/>
	<rect x="1581.656" y="1018.545" fill="#FFFEFD" width="19.646" height="19.021"/>
	<rect x="1493.114" y="1018.544" fill="#FFFEFD" width="21.208" height="19.021"/>
	<rect x="1593.634" y="998.232" fill="#FFFEFD" width="21.396" height="17.812"/>
	<rect x="1487.136" y="939.337" fill="#FFFEFD" width="18.333" height="13.5"/>
	<rect x="1588.155" y="977.045" fill="#FFFEFD" width="18.084" height="18.688"/>
	<rect x="1433.489" y="977.045" fill="#FFFEFD" width="20.146" height="18.688"/>
	<rect x="1617.53" y="998.233" fill="#FFFEFD" width="20.042" height="17.812"/>
	<rect x="1608.739" y="977.045" fill="#FFFEFD" width="28.833" height="18.688"/>
	<rect x="1642.78" y="939.337" fill="#FFFEFD" width="18.937" height="13.5"/>
	<rect x="1618.635" y="939.337" fill="#FFFEFD" width="18.938" height="13.5"/>
	<rect x="1603.78" y="1018.544" fill="#FFFEFD" width="33.792" height="19.021"/>
	<rect x="1559.51" y="1018.544" fill="#FFFEFD" width="19.646" height="19.021"/>
	<rect x="1608.739" y="1040.065" fill="#FFFEFD" width="28.833" height="20.875"/>
	<rect x="1581.655" y="1040.065" fill="#FFFEFD" width="24.584" height="20.875"/>
	<rect x="1685.822" y="1040.056" fill="#FFFEFD" width="18.917" height="20.875"/>
	<rect x="1709.822" y="1040.056" fill="#FFFEFD" width="41.729" height="20.875"/>
	<rect x="1754.051" y="1018.544" fill="#FFFEFD" width="18.854" height="19.021"/>
	<rect x="1754.051" y="1040.065" fill="#FFFEFD" width="18.854" height="20.875"/>
	<rect x="1664.197" y="1040.065" fill="#FFFEFD" width="19.125" height="20.875"/>
	<rect x="1775.405" y="1040.065" fill="#FFFEFD" width="21.146" height="20.875"/>
	<rect x="1664.197" y="939.337" fill="#FFFEFD" width="19.125" height="13.5"/>
	<rect x="1554.572" y="1040.065" fill="#FFFEFD" width="24.583" height="20.875"/>
	<rect x="1731.135" y="1018.544" fill="#FFFEFD" width="20.416" height="19.021"/>
	<rect x="1374.635" y="998.233" fill="#FFFEFD" width="20.146" height="17.812"/>
	<rect x="1397.281" y="998.232" fill="#FFFEFD" width="18.854" height="17.812"/>
	<rect x="1384.01" y="1018.544" fill="#FFFEFD" width="19.625" height="19.021"/>
	<rect x="1443.636" y="939.337" fill="#FFFEFD" width="18.583" height="13.5"/>
	<rect x="1406.135" y="1018.544" fill="#FFFEFD" width="19.646" height="19.021"/>
	<rect x="1418.635" y="998.232" fill="#FFFEFD" width="20.417" height="17.812"/>
	<rect x="1361.865" y="1018.545" fill="#FFFEFD" width="19.625" height="19.021"/>
	<rect x="1358.219" y="1040.065" fill="#FFFEFD" width="20.417" height="20.875"/>
	<rect x="1381.135" y="1040.065" fill="#FFFEFD" width="26.479" height="20.875"/>
	<rect x="1310.344" y="1018.545" fill="#FFFEFD" width="49.021" height="19.021"/>
	<rect x="1410.114" y="1040.065" fill="#FFFEFD" width="111.229" height="20.875"/>
	<rect x="1523.843" y="1040.065" fill="#FFFEFD" width="28.229" height="20.875"/>
	<rect x="1464.739" y="939.337" fill="#FFFEFD" width="19.875" height="13.5"/>
	<rect x="1310.344" y="1040.065" fill="#FFFEFD" width="21.938" height="20.875"/>
	<rect x="1334.781" y="1040.065" fill="#FFFEFD" width="20.937" height="20.875"/>
	<rect x="1543.885" y="977.045" fill="#FFFEFD" width="18.604" height="18.688"/>
	<rect x="1376.968" y="939.337" fill="#FFFEFD" width="20.417" height="13.5"/>
	<rect x="1731.135" y="939.337" fill="#FFFEFD" width="20.416" height="13.5"/>
	<rect x="1754.051" y="939.337" fill="#FFFEFD" width="18.854" height="13.5"/>
	<rect x="1775.405" y="939.337" fill="#FFFEFD" width="21.146" height="13.5"/>
	<rect x="1775.405" y="1018.544" fill="#FFFEFD" width="21.146" height="19.021"/>
	<rect x="1775.405" y="998.233" fill="#FFFEFD" width="21.146" height="17.812"/>
	<rect x="1775.405" y="977.045" fill="#FFFEFD" width="21.146" height="18.688"/>
	<rect x="1775.405" y="955.337" fill="#FFFEFD" width="21.146" height="19.208"/>
	<rect x="1642.781" y="1040.065" fill="#FFFEFD" width="18.937" height="20.875"/>
	<rect x="1412.386" y="977.045" fill="#FFFEFD" width="18.583" height="18.688"/>
	<rect x="1389.739" y="977.045" fill="#FFFEFD" width="20.146" height="18.688"/>
	<rect x="1376.968" y="955.337" fill="#FFFEFD" width="20.417" height="19.208"/>
	<rect x="1754.051" y="955.337" fill="#FFFEFD" width="18.854" height="19.208"/>
	<rect x="1754.051" y="977.045" fill="#FFFEFD" width="18.854" height="18.688"/>
	<rect x="1731.135" y="977.045" fill="#FFFEFD" width="20.416" height="18.688"/>
	<rect x="1731.135" y="998.233" fill="#FFFEFD" width="20.416" height="17.812"/>
	<rect x="1754.051" y="998.233" fill="#FFFEFD" width="18.854" height="17.812"/>
	<rect x="1443.636" y="955.337" fill="#FFFEFD" width="18.583" height="19.208"/>
	<rect x="1464.739" y="955.337" fill="#FFFEFD" width="19.875" height="19.208"/>
	<rect x="1487.136" y="955.337" fill="#FFFEFD" width="18.333" height="19.208"/>
	<rect x="1507.948" y="955.337" fill="#FFFEFD" width="20.687" height="19.208"/>
	<rect x="1531.135" y="955.337" fill="#FFFEFD" width="18.334" height="19.208"/>
	<rect x="1551.968" y="955.337" fill="#FFFEFD" width="20.167" height="19.208"/>
	<rect x="1574.614" y="955.337" fill="#FFFEFD" width="18.875" height="19.208"/>
	<rect x="1595.968" y="955.337" fill="#FFFEFD" width="20.167" height="19.208"/>
	<rect x="1618.635" y="955.337" fill="#FFFEFD" width="18.938" height="19.208"/>
	<rect x="1642.781" y="955.337" fill="#FFFEFD" width="18.937" height="19.208"/>
	<rect x="1664.197" y="955.337" fill="#FFFEFD" width="19.125" height="19.208"/>
	<rect x="1731.135" y="955.337" fill="#FFFEFD" width="20.416" height="19.208"/>
	<rect x="1420.718" y="955.337" fill="#FFFEFD" width="20.417" height="19.208"/>
	<rect x="1399.886" y="955.337" fill="#FFFEFD" width="18.333" height="19.208"/>
	<rect x="1664.197" y="977.045" fill="#FFFEFD" width="19.125" height="18.688"/>
	<rect x="1642.781" y="977.045" fill="#FFFEFD" width="18.937" height="18.688"/>
	<rect x="1664.197" y="1018.544" fill="#FFFEFD" width="19.125" height="19.021"/>
	<rect x="1754.051" y="1018.544" fill="#FFFEFD" width="18.854" height="19.021"/>
	<rect x="1731.135" y="1018.544" fill="#FFFEFD" width="20.416" height="19.021"/>
	<rect x="1704.614" y="1040.056" fill="#FFFEFD" width="0.125" height="20.875"/>
	<path fill="#3B536F" d="M1868.562,1202.205l-6.771,76.229c0,0-11.29-10.415-11.458-18.415c-0.167-7.98,2.333-50.688,2.333-50.688
		v0.792c0.563-1.084,1.375-2.084,2.313-3c3.167-3.042,7.959-5,10.646-5.938c1.252-0.437,2.042-0.646,2.042-0.646L1868.562,1202.205z
		"/>
	<path fill="#FFFFFF" d="M1852.938,1248.769c-0.595,0-1.185-0.252-1.596-0.74c-0.742-0.881-0.628-2.195,0.251-2.936
		c2.03-1.711,7.115-5.172,7.332-5.318c0.958-0.649,2.25-0.398,2.896,0.552c0.646,0.952,0.398,2.248-0.552,2.895
		c-0.051,0.035-5.125,3.487-6.99,5.058C1853.889,1248.608,1853.41,1248.769,1852.938,1248.769"/>
	<path fill="#FFFFFF" d="M1852.938,1256.171c-0.595,0-1.185-0.253-1.596-0.741c-0.742-0.881-0.628-2.195,0.251-2.936
		c2.03-1.709,7.115-5.174,7.332-5.32c0.951-0.648,2.25-0.398,2.896,0.552c0.646,0.952,0.4,2.248-0.552,2.895
		c-0.051,0.035-5.125,3.489-6.99,5.06C1853.889,1256.01,1853.41,1256.171,1852.938,1256.171"/>
	<path fill="#243958" d="M1865.624,1201.185l-3.188,34.313l-9.5,6l2.042-34.377
		C1858.145,1204.081,1862.936,1202.121,1865.624,1201.185"/>
	<path fill="#3B536F" d="M1947.847,1180.911c0,0,10.558,11.81,11.079,16.077c0.521,4.269-4.688,67.55-6.771,68.853
		c-2.083,1.302-13.021,8.333-15.104,8.333S1947.847,1180.911,1947.847,1180.911"/>
	<path fill="#243958" d="M1950.853,1145.268l-10.938,129.688c0,0-26.041,23.438-40.103,24.479
		c-14.063,1.041-39.584-19.271-39.584-19.271l13.021-139.583c0,0,7.063-9.979,31.958-9.876c2.958,0.021,6.208,0.166,9.708,0.5
		c2.834,0.271,5.438,0.604,7.834,0.979C1948.248,1136.121,1950.853,1145.268,1950.853,1145.268"/>
	<path fill="#4D6581" d="M1902.812,1133.747l-10,101.75c-15.292-5.5-22.938-20.417-22.938-20.417l7.097-73.19
		C1876.97,1141.89,1884.687,1134.144,1902.812,1133.747"/>
	<path fill="#4D6581" d="M1947.893,1146.18l-6.343,76.273c0,0-10.238,9.669-25.53,13.564c0.625-7.938,6.635-78.432,8.531-100.516
		C1940.759,1139.189,1946.371,1144.221,1947.893,1146.18"/>
	<path fill="#BFD6E6" d="M1922.749,1132.185c-1.479,17.166-8.625,100.75-8.854,104.333c-0.813,12.396-3.563,27.458-12.271,26.729
		c-9.104-0.791-7.5-19.748-7.5-19.748l0.729-7.334l10.354-105.458c2.958,0.021,6.208,0.167,9.708,0.5
		C1917.749,1131.477,1920.353,1131.81,1922.749,1132.185"/>
	<path fill="#223958" d="M1912.636,1174.104l-5.463-0.451c-1.388-0.115-2.429-1.344-2.313-2.73l1.271-15.373
		c0.115-1.387,1.344-2.428,2.73-2.313l5.463,0.452c1.387,0.114,2.428,1.343,2.313,2.729l-1.271,15.373
		C1915.251,1173.179,1914.023,1174.219,1912.636,1174.104"/>
	<path fill="#D15963" d="M1914.154,1193.054h-11.278c-0.527,0-0.958-0.431-0.958-0.958v-2.814c0-0.526,0.431-0.957,0.958-0.957
		h11.278c0.525,0,0.958,0.431,0.958,0.957v2.814C1915.112,1192.623,1914.68,1193.054,1914.154,1193.054"/>
	<path fill="#E29058" d="M1913.307,1203.341h-11.278c-0.527,0-0.958-0.432-0.958-0.959v-2.883c0-0.527,0.431-0.958,0.958-0.958
		h11.278c0.525,0,0.958,0.431,0.958,0.958v2.883C1914.265,1202.909,1913.832,1203.341,1913.307,1203.341"/>
	<path fill="#EEFBFF" d="M1912.047,1213.627h-11.277c-0.527,0-0.958-0.432-0.958-0.958v-2.884c0-0.526,0.431-0.958,0.958-0.958
		h11.277c0.527,0,0.959,0.432,0.959,0.958v2.884C1913.006,1213.195,1912.574,1213.627,1912.047,1213.627"/>
	<path fill="#FFFFFF" d="M1955.63,1208.329c-0.834,0-1.622-0.505-1.943-1.328c-1.371-3.534-3.89-4.58-3.995-4.623
		c-1.059-0.423-1.594-1.625-1.183-2.688c0.411-1.063,1.581-1.601,2.655-1.208c0.177,0.064,4.331,1.658,6.408,7.009
		c0.414,1.074-0.115,2.28-1.188,2.697C1956.137,1208.284,1955.88,1208.329,1955.63,1208.329"/>
	<path fill="#FFFFFF" d="M1954.445,1217.171c-0.834,0-1.621-0.504-1.94-1.328c-1.388-3.564-3.952-4.601-3.976-4.61
		c-1.078-0.4-1.63-1.599-1.229-2.678c0.4-1.078,1.599-1.631,2.677-1.229c0.178,0.065,4.33,1.658,6.409,7.007
		c0.416,1.072-0.114,2.278-1.187,2.695C1954.952,1217.126,1954.698,1217.171,1954.445,1217.171"/>
	<path fill="#FFFFFF" d="M1953.448,1226.681c-0.834,0-1.621-0.505-1.94-1.329c-1.388-3.566-3.951-4.602-3.976-4.611
		c-1.078-0.401-1.63-1.6-1.229-2.678c0.401-1.078,1.604-1.634,2.678-1.229c0.178,0.065,4.33,1.659,6.408,7.009
		c0.418,1.072-0.113,2.281-1.186,2.696C1953.955,1226.636,1953.701,1226.681,1953.448,1226.681"/>
	<rect x="1126.855" y="1108.414" fill="#EF6F56" width="7.104" height="5.771"/>
</g>
<g id="bg-brilho-tela">
	<defs>
		<path id="SVGID_27_" d="M1068.605,624.603c-1.271,0-2.105,1.333-1.542,2.48l56.063,113.478l29.166,59.041h693.748l85.229-172.519
			c0.563-1.147-0.271-2.48-1.543-2.48H1068.605z"/>
	</defs>
	<clipPath id="SVGID_28_">
		<use xlink:href="#SVGID_27_"  overflow="visible"/>
	</clipPath>
	
		<linearGradient id="SVGID_29_" gradientUnits="userSpaceOnUse" x1="0.0029" y1="1879.0039" x2="1.0034" y2="1879.0039" gradientTransform="matrix(864.5638 0 0 -864.5638 1064 1625231.375)">
		<stop  offset="0" style="stop-color:#FFFFFF"/>
		<stop  offset="1" style="stop-color:#FFFFFF"/>
	</linearGradient>
	<rect x="1066.5" y="624.603" clip-path="url(#SVGID_28_)" fill="url(#SVGID_29_)" width="865.332" height="174.999"/>
</g>
</svg>
